<?xml version="1.0" standalone="no"?>
<!DOCTYPE svg PUBLIC "-//W3C//DTD SVG 20010904//EN"
 "http://www.w3.org/TR/2001/REC-SVG-20010904/DTD/svg10.dtd">
<svg version="1.0" xmlns="http://www.w3.org/2000/svg"
 width="300.000000pt" height="75.000000pt" viewBox="0 0 300.000000 75.000000"
 preserveAspectRatio="xMidYMid meet">
<metadata>
Created by potrace 1.10, written by Peter Selinger 2001-2011
</metadata>
<g transform="translate(0.000000,75.000000) scale(0.100000,-0.100000)"
fill="#000000" stroke="none">
<path d="M580 704 c0 -16 6 -21 25 -21 14 0 25 5 25 12 0 7 -8 12 -17 11 -10
-2 -21 2 -25 8 -5 6 -8 2 -8 -10z"/>
<path d="M492 693 c5 -25 28 -28 28 -4 0 12 -6 21 -16 21 -9 0 -14 -7 -12 -17z"/>
<path d="M530 694 c0 -9 7 -14 17 -12 25 5 28 28 4 28 -12 0 -21 -6 -21 -16z"/>
<path d="M652 698 c-7 -7 -12 -16 -12 -22 0 -5 3 -7 6 -3 4 3 19 0 34 -8 28
-15 40 -11 40 12 0 17 -27 17 -33 1 -3 -8 -8 -4 -14 10 -7 18 -11 20 -21 10z"/>
<path d="M464 687 c-5 -14 -9 -15 -20 -6 -15 12 -19 2 -6 -18 5 -9 12 -8 29 0
16 9 20 16 13 27 -8 12 -10 12 -16 -3z"/>
<path d="M377 654 c-3 -3 -3 -12 -1 -19 4 -10 -1 -12 -17 -8 -19 5 -21 3 -16
-16 4 -18 2 -21 -14 -16 -13 4 -19 2 -19 -9 0 -26 18 -27 37 -3 10 13 28 29
41 36 24 13 30 41 9 41 -8 0 -16 -3 -20 -6z"/>
<path d="M754 639 c-3 -6 0 -15 7 -20 13 -7 28 5 29 24 0 11 -28 8 -36 -4z"/>
<path d="M496 604 c-92 -29 -176 -143 -176 -239 0 -51 33 -129 73 -172 54 -59
106 -83 182 -83 215 0 332 241 201 413 -58 76 -183 112 -280 81z m191 -32
c117 -60 161 -205 97 -322 -87 -161 -306 -168 -404 -13 -83 130 -20 306 126
353 44 14 136 5 181 -18z"/>
<path d="M512 535 c-15 -19 -29 -25 -57 -25 -34 0 -37 -2 -31 -22 4 -13 14
-86 22 -163 9 -77 21 -146 26 -152 14 -17 204 -18 214 -2 4 6 15 75 25 153 10
77 21 151 25 164 6 20 3 22 -28 22 -24 0 -42 8 -58 25 -19 20 -33 25 -71 25
-39 0 -51 -5 -67 -25z m112 -11 c33 -13 14 -24 -38 -24 -81 0 -84 25 -4 29 14
0 33 -2 42 -5z m-96 -53 c10 -6 9 -10 -7 -14 -25 -6 -27 -34 -5 -58 14 -16 14
-20 -2 -43 -9 -15 -18 -25 -19 -24 -1 2 -5 36 -9 76 -5 64 -4 72 11 72 10 0
24 -4 31 -9z m146 -58 c-7 -72 -23 -109 -25 -57 -1 16 0 34 1 39 13 50 12 56
-9 62 -27 7 -17 23 15 23 24 0 24 -1 18 -67z m-205 -10 c-1 -78 -6 -74 -12 10
-2 31 0 57 5 57 4 0 8 -30 7 -67z m237 50 c-3 -10 -8 -51 -12 -91 -4 -40 -9
-71 -11 -68 -9 9 9 176 19 176 5 0 7 -8 4 -17z m-66 -23 c0 -16 -8 -19 -60
-17 -48 2 -60 5 -60 19 0 13 11 16 60 16 52 0 60 -3 60 -18z m-17 -64 c9 -7
17 -18 17 -25 0 -6 5 -20 11 -30 15 -23 4 -70 -19 -78 -9 -4 -20 -11 -24 -17
-6 -8 -10 -8 -15 0 -11 16 -82 23 -76 7 3 -6 13 -13 24 -15 30 -5 28 -20 -3
-24 -31 -3 -35 5 -37 84 0 28 3 52 8 52 6 0 18 14 28 30 19 33 55 40 86 16z"/>
<path d="M556 354 c-20 -20 -20 -34 -1 -34 9 0 15 9 16 23 l0 22 11 -22 c12
-25 38 -31 38 -10 0 16 -20 37 -36 37 -7 0 -20 -7 -28 -16z"/>
<path d="M515 300 c-3 -5 -2 -17 3 -27 9 -15 11 -14 20 4 15 27 -7 49 -23 23z"/>
<path d="M617 304 c-3 -3 -3 -12 0 -20 3 -8 -1 -14 -11 -14 -9 0 -16 -7 -16
-15 0 -20 36 -19 44 1 14 36 3 67 -17 48z"/>
<path d="M805 600 c-8 -13 34 -60 55 -60 11 0 12 -2 2 -8 -10 -7 -9 -15 4 -40
16 -33 28 -40 39 -22 3 6 -2 10 -12 10 -15 0 -16 2 -3 10 13 8 12 10 -2 10
-21 0 -23 11 -6 28 9 9 9 12 0 12 -7 0 -12 7 -12 15 0 8 -8 15 -19 15 -11 0
-18 6 -17 16 1 20 -19 30 -29 14z"/>
<path d="M1000 350 l0 -200 25 0 c25 0 25 1 25 80 l0 80 85 0 c56 0 96 5 114
15 38 19 65 77 58 123 -13 76 -66 102 -207 102 l-100 0 0 -200z m232 133 c30
-30 29 -90 -2 -115 -17 -14 -40 -18 -101 -18 l-79 0 0 81 0 81 80 -4 c66 -3
83 -7 102 -25z"/>
<path d="M1475 536 c-117 -53 -142 -241 -46 -337 65 -66 195 -72 283 -14 38
25 38 25 38 95 l0 70 -85 0 c-82 0 -85 -1 -85 -23 0 -22 3 -23 60 -19 l60 4 0
-41 c0 -54 -30 -74 -120 -79 -63 -4 -69 -2 -103 28 -78 68 -73 220 8 270 57
35 167 20 193 -26 7 -12 17 -15 37 -10 25 6 26 8 12 29 -31 47 -64 62 -145 65
-50 1 -88 -3 -107 -12z"/>
<path d="M1840 351 l0 -201 26 0 26 0 -4 176 c-3 136 -1 170 8 148 6 -16 35
-95 65 -176 73 -199 75 -199 152 10 32 86 57 162 57 169 0 6 3 14 8 16 4 3 6
-73 4 -169 l-4 -174 26 0 26 0 0 200 0 200 -34 0 c-39 0 -30 17 -111 -205 -56
-154 -51 -145 -59 -110 -4 17 -31 93 -60 170 l-54 140 -36 3 -36 3 0 -200z"/>
<path d="M2370 528 c-36 -24 -53 -67 -44 -105 10 -40 59 -70 141 -89 113 -25
149 -68 100 -118 -46 -46 -156 -41 -195 9 -21 26 -62 34 -62 12 0 -21 30 -56
62 -73 41 -21 152 -22 201 -1 27 12 42 27 53 53 33 78 -10 131 -128 159 -83
20 -114 36 -123 64 -10 32 12 59 55 71 53 14 106 3 129 -26 11 -14 29 -24 45
-24 30 0 32 7 10 38 -25 37 -67 52 -142 52 -55 0 -76 -5 -102 -22z"/>
<path d="M260 506 c0 -24 18 -28 30 -6 9 17 8 20 -10 20 -11 0 -20 -6 -20 -14z"/>
<path d="M894 389 c-10 -17 13 -36 27 -22 12 12 4 33 -11 33 -5 0 -12 -5 -16
-11z"/>
<path d="M893 330 c-1 -11 4 -20 11 -20 8 0 16 9 19 20 4 14 0 20 -12 20 -10
0 -17 -8 -18 -20z"/>
</g>
</svg>
