<?xml version="1.0" standalone="no"?>
<!DOCTYPE svg PUBLIC "-//W3C//DTD SVG 20010904//EN"
 "http://www.w3.org/TR/2001/REC-SVG-20010904/DTD/svg10.dtd">
<svg version="1.0" xmlns="http://www.w3.org/2000/svg"
 width="300.000000pt" height="169.000000pt" viewBox="0 0 300.000000 169.000000"
 preserveAspectRatio="xMidYMid meet">
<metadata>
Created by potrace 1.10, written by Peter Selinger 2001-2011
</metadata>
<g transform="translate(0.000000,169.000000) scale(0.100000,-0.100000)"
fill="#000000" stroke="none">
<path d="M473 1253 c-18 -7 -16 -43 2 -43 9 0 15 9 15 25 0 14 -1 25 -2 24 -2
0 -9 -3 -15 -6z"/>
<path d="M500 1240 c0 -13 7 -20 20 -20 13 0 20 7 20 20 0 13 -7 20 -20 20
-13 0 -20 -7 -20 -20z"/>
<path d="M557 1241 c6 -25 50 -25 56 0 3 11 1 19 -4 19 -5 0 -9 -6 -9 -12 0
-8 -3 -9 -8 -3 -4 6 -14 11 -24 13 -12 2 -15 -3 -11 -17z"/>
<path d="M632 1238 c-18 -18 -15 -28 8 -28 13 0 20 7 20 20 0 23 -10 26 -28 8z"/>
<path d="M430 1224 c0 -14 -3 -14 -15 -4 -19 16 -28 9 -19 -14 4 -10 13 -15
21 -12 8 3 19 6 24 6 5 0 9 9 9 20 0 11 -4 20 -10 20 -5 0 -10 -7 -10 -16z"/>
<path d="M676 1225 c-8 -21 1 -35 20 -35 10 0 14 8 12 22 -4 27 -23 34 -32 13z"/>
<path d="M724 1196 c-2 -22 0 -23 17 -13 10 6 19 15 19 18 0 5 -24 19 -33 19
-1 0 -3 -11 -3 -24z"/>
<path d="M333 1193 c-9 -3 -10 -10 -3 -24 7 -11 7 -19 1 -19 -5 0 -11 5 -13
12 -7 20 -30 -3 -25 -24 4 -15 1 -18 -13 -13 -20 6 -36 -10 -20 -20 5 -3 10
-11 10 -17 0 -6 -6 -6 -15 2 -9 7 -19 9 -23 5 -4 -4 -1 -10 6 -12 6 -3 12 -9
12 -14 0 -4 -7 -5 -17 -2 -11 4 -14 3 -9 -5 13 -21 34 -13 55 23 11 19 25 35
31 35 6 0 9 4 6 8 -2 4 9 14 25 21 41 18 32 61 -8 44z"/>
<path d="M753 1174 c-3 -9 0 -20 8 -25 9 -6 15 -4 17 6 2 8 8 15 13 15 6 0 7
5 4 10 -10 15 -35 12 -42 -6z"/>
<path d="M1020 845 l0 -310 40 0 40 0 0 123 0 122 123 0 c138 0 183 14 230 69
34 41 40 67 35 141 -5 68 -26 104 -79 135 -29 17 -58 21 -212 25 l-177 5 0
-310z m313 234 c46 -12 77 -57 77 -112 0 -94 -54 -127 -210 -127 l-100 0 0
125 0 125 98 0 c53 0 114 -5 135 -11z m-245 -263 c2 -9 -2 -24 -9 -32 -20 -25
-31 5 -20 54 3 11 27 -7 29 -22z"/>
<path d="M1620 1153 c0 -2 0 -141 0 -309 l-1 -307 36 -1 35 -1 0 241 c0 239
-5 308 -21 299 -4 -3 -7 4 -6 15 1 11 7 20 15 20 7 0 12 -6 11 -12 -1 -7 0
-20 4 -28 3 -8 15 -44 26 -80 30 -98 165 -445 174 -448 4 -1 18 -2 31 -2 21 0
29 14 76 138 81 210 147 406 143 420 -3 6 2 12 11 12 9 0 16 -4 16 -10 0 -5 0
-12 0 -15 0 -3 -3 -5 -7 -5 -16 1 -22 -82 -22 -310 l-1 -235 37 1 38 1 0 308
0 308 -54 0 -53 0 -84 -224 c-46 -123 -86 -239 -90 -257 -9 -46 -21 -48 -29
-5 -4 21 -46 139 -93 262 l-87 224 -53 1 c-28 0 -52 0 -52 -1z"/>
<path d="M2453 1136 c-28 -14 -59 -36 -68 -50 -25 -38 -30 -105 -12 -148 23
-54 76 -83 212 -118 66 -17 131 -38 144 -48 33 -25 44 -67 26 -108 -20 -49
-65 -68 -160 -68 -94 0 -136 17 -167 70 -16 28 -26 34 -42 30 -12 -3 -29 -6
-39 -6 -43 0 21 -98 86 -132 57 -30 201 -37 279 -14 110 32 163 132 120 229
-25 57 -75 84 -212 117 -105 25 -125 33 -157 63 -43 39 -21 106 43 133 43 18
135 18 179 0 19 -8 41 -28 50 -46 15 -29 20 -32 52 -27 48 8 50 12 29 52 -39
72 -90 94 -221 94 -75 1 -99 -3 -142 -23z"/>
<path d="M453 1134 c-56 -20 -123 -81 -151 -138 -94 -187 44 -410 253 -409
209 1 345 223 250 408 -34 66 -101 125 -165 144 -51 15 -136 13 -187 -5z m188
-19 c144 -49 215 -225 146 -361 -29 -57 -83 -109 -136 -131 -47 -20 -146 -19
-199 2 -58 23 -128 103 -147 168 -19 63 -19 91 -1 150 43 144 194 221 337 172z"/>
<path d="M485 1060 c-22 -23 -38 -30 -65 -30 -44 0 -52 -7 -39 -31 5 -11 18
-91 28 -179 10 -88 21 -164 25 -168 14 -14 210 -14 229 0 13 10 22 48 38 173
11 88 24 164 30 169 20 21 9 36 -29 36 -29 0 -45 7 -67 30 -24 25 -37 30 -75
30 -38 0 -51 -5 -75 -30z m80 0 c4 -6 15 -8 24 -5 10 3 24 -1 30 -9 11 -13 8
-16 -13 -22 -35 -8 -118 4 -110 17 6 10 40 27 56 28 4 1 10 -4 13 -9z m97
-106 c-2 -21 -8 -75 -14 -119 -6 -44 -10 -96 -9 -115 0 -19 -4 -42 -9 -50 -5
-8 -10 -10 -10 -5 0 7 -28 9 -76 7 l-75 -4 1 43 c1 24 -4 76 -9 114 -6 39 -10
93 -11 120 l0 50 107 -1 108 -1 -3 -39z m-229 -16 c3 -29 8 -100 11 -158 l5
-105 -14 115 c-7 63 -16 134 -19 158 -3 23 -2 42 3 42 4 0 11 -24 14 -52z
m263 20 c-3 -18 -10 -73 -16 -123 -14 -120 -21 -167 -26 -162 -2 2 3 68 11
148 8 79 15 150 15 157 0 6 5 12 11 12 7 0 9 -12 5 -32z"/>
<path d="M477 973 c-14 -13 -6 -52 13 -66 l20 -14 -20 -26 c-11 -14 -20 -30
-20 -36 0 -18 24 -2 42 29 12 21 25 30 43 30 30 0 77 -28 69 -41 -3 -5 0 -17
5 -26 9 -16 10 -16 11 5 0 12 -5 31 -12 42 -9 15 -9 24 1 43 7 14 10 34 6 46
-6 19 -14 21 -79 21 -40 0 -76 -3 -79 -7z m72 -22 c7 -10 9 -10 13 1 3 7 17
14 32 16 21 1 26 -2 26 -22 0 -22 -4 -24 -45 -23 -25 1 -45 5 -45 10 0 4 -7 7
-15 7 -8 0 -15 -5 -15 -12 0 -9 -3 -9 -11 -1 -7 7 -9 19 -6 28 8 18 54 16 66
-4z"/>
<path d="M550 875 c0 -16 25 -55 36 -55 17 0 25 27 11 38 -15 11 -47 23 -47
17z"/>
<path d="M517 845 c-8 -18 11 -31 25 -17 11 11 3 32 -12 32 -4 0 -10 -7 -13
-15z"/>
<path d="M490 805 c-9 -11 -10 -22 -4 -36 9 -20 10 -20 24 5 17 32 1 57 -20
31z"/>
<path d="M536 801 c-3 -5 0 -14 8 -20 10 -8 16 -8 25 2 6 8 8 17 4 20 -9 10
-31 9 -37 -2z"/>
<path d="M592 793 c4 -21 33 -25 33 -3 0 8 -8 16 -18 18 -14 3 -18 -1 -15 -15z"/>
<path d="M566 754 c-6 -15 3 -24 25 -24 28 0 31 27 4 32 -14 3 -26 0 -29 -8z"/>
<path d="M480 732 c0 -7 8 -15 18 -18 9 -3 31 -13 48 -21 28 -14 33 -14 57 2
15 9 27 21 27 26 0 10 -32 -1 -43 -15 -6 -8 -10 -7 -14 2 -2 6 -19 12 -37 12
-18 0 -37 5 -44 12 -9 9 -12 9 -12 0z"/>
<path d="M810 1135 c-20 -24 4 -45 26 -24 13 14 13 17 1 27 -11 10 -17 9 -27
-3z"/>
<path d="M841 1096 c-14 -17 -7 -36 14 -36 22 0 29 20 13 36 -13 13 -16 13
-27 0z"/>
<path d="M872 1058 c-15 -15 -16 -38 -2 -38 6 0 10 -9 10 -20 0 -14 7 -20 23
-20 21 -1 22 -1 3 -15 -11 -8 -15 -15 -9 -15 6 0 18 -3 27 -6 13 -5 14 -2 5
25 -6 17 -18 31 -27 32 -11 0 -12 2 -4 6 6 2 12 9 12 14 0 6 -4 7 -10 4 -5 -3
-15 -3 -22 1 -8 5 -6 11 6 20 9 6 13 15 8 18 -5 3 -14 0 -20 -6z"/>
<path d="M203 1034 c-8 -21 13 -42 28 -27 13 13 5 43 -11 43 -6 0 -13 -7 -17
-16z"/>
<path d="M185 978 c1 -13 9 -24 18 -26 12 -2 15 1 11 12 -4 10 -1 16 7 16 11
0 11 3 -1 10 -24 16 -37 11 -35 -12z"/>
<path d="M907 903 c-14 -13 -6 -33 13 -33 13 0 20 7 20 20 0 19 -20 27 -33 13z"/>
<path d="M172 893 c-10 -4 -10 -8 -1 -19 17 -20 35 -17 35 6 0 20 -9 23 -34
13z"/>
<path d="M902 835 c-1 -18 3 -25 17 -25 13 0 19 7 19 25 0 17 -6 25 -17 25
-11 0 -17 -9 -19 -25z"/>
<path d="M170 830 c0 -13 7 -20 20 -20 23 0 26 10 8 28 -18 18 -28 15 -28 -8z"/>
<path d="M227 724 c-4 -4 -7 -17 -8 -28 0 -20 -1 -20 -8 -2 -4 11 -10 15 -14
10 -3 -6 -2 -16 3 -23 11 -19 41 -6 34 14 -7 18 12 21 20 3 3 -7 5 -4 3 6 -2
21 -19 31 -30 20z"/>
<path d="M847 723 c-24 -24 22 -64 49 -42 8 6 14 17 14 23 0 6 -7 3 -14 -6
-16 -22 -30 -24 -23 -4 4 10 1 13 -9 9 -10 -4 -12 0 -8 11 6 17 2 21 -9 9z"/>
<path d="M258 659 c-22 -12 -23 -32 -3 -49 9 -8 15 -9 15 -2 0 6 -5 14 -11 17
-7 5 -4 14 7 26 19 21 17 23 -8 8z"/>
<path d="M801 657 c-8 -11 -5 -19 14 -37 14 -13 25 -18 25 -12 0 7 -5 12 -11
12 -5 0 -7 5 -4 11 4 6 13 8 21 5 20 -7 17 4 -3 20 -23 17 -28 17 -42 1z"/>
<path d="M751 616 c-9 -11 -10 -20 -1 -35 12 -23 35 -28 46 -9 5 8 2 9 -10 5
-13 -5 -17 -3 -13 7 4 10 1 13 -9 9 -7 -3 -14 -1 -14 5 0 6 6 12 13 15 6 2 9
7 6 11 -3 4 -12 0 -18 -8z"/>
<path d="M310 606 c-27 -33 18 -72 48 -42 13 13 14 20 6 34 -15 23 -38 26 -54
8z m39 -33 c-15 -18 -34 -1 -25 22 5 14 9 15 21 5 12 -10 13 -16 4 -27z"/>
<path d="M707 570 c-5 -20 -8 -21 -21 -10 -20 16 -21 0 -1 -26 13 -17 14 -17
15 -1 0 20 11 22 28 5 16 -16 15 1 -2 31 l-13 23 -6 -22z"/>
<path d="M397 563 c-4 -3 -7 -15 -7 -25 0 -22 41 -41 52 -25 8 13 1 27 -13 27
-6 0 -7 -5 -3 -11 4 -7 1 -10 -7 -7 -8 3 -16 13 -17 23 -3 14 1 17 22 13 14
-3 23 -1 20 3 -6 11 -38 12 -47 2z"/>
<path d="M490 529 c-6 -11 -9 -25 -6 -32 3 -9 5 -8 5 1 1 10 6 10 21 2 21 -11
23 -8 14 28 -8 28 -20 28 -34 1z"/>
<path d="M561 538 c0 -7 4 -22 9 -33 8 -19 9 -19 9 -1 1 18 2 18 21 1 20 -18
20 -17 20 13 0 18 -4 32 -9 32 -5 0 -7 -10 -4 -22 l5 -23 -16 23 c-19 24 -36
29 -35 10z"/>
</g>
</svg>
